:SAMPLES-PER-SECOND 30
:FULLY-SPECIFIED
:DEGREES
146
root  -28.1964 40.7078 -42.1324 1.93979 60.6804 3.15668
RightUpLeg  -15.2689 -17.695 -5.51576
RightLeg  29.5107 -7.1171 -4.57685
RightFoot  -9.0118 -0.139421 3.78759
RightToes  0.000482159 0.542163 -0.142577
Spine  6.00584 0.389571 -1.74915
Spine1  11.9501 0.591737 -1.46361
HEad  -7.80623 12.3007 -9.57936
LeftShoulder1  7.99975 -13.066 -41.9083
LeftArm  -11.433 8.39209 -26.9062
LeftForeArm  36.8196 -75.254 -44.6397
LeftHand  -0.25398 0.0180481 5.50724
RightShoulder  4.97526 9.1316 33.4322
RightArm  -14.1835 -25.9719 26.7549
RightForeArm  27.2003 77.7162 83.597
RightHand  0.644269 -13.8211 -9.83969
LeftUpLeg  4.51307 6.13275 -1.23895
LeftLeg  5.88617 24.9586 -4.80488
LeftFoot  -11.0067 0.0741944 -2.7789
LeftToes  1.06248e-005 4.65854e-005 -8.185e-006
147
root  -27.2094 40.626 -41.9893 1.54401 62.7486 3.36873
RightUpLeg  -17.6552 -20.231 -2.88192
RightLeg  25.239 -5.91331 -3.2834
RightFoot  -7.40944 -0.205458 4.49532
RightToes  0.000482159 0.542163 -0.142577
Spine  7.50776 0.156386 -2.66112
Spine1  11.6911 -0.0544489 -0.316189
HEad  -7.85888 11.1664 -8.88189
LeftShoulder1  7.99197 -13.0374 -41.9422
LeftArm  -11.3902 7.13661 -27.1651
LeftForeArm  36.4797 -75.1461 -44.1859
LeftHand  -0.25398 0.0180481 5.50724
RightShoulder  4.95186 9.07443 33.4251
RightArm  -15.6908 -26.5367 27.354
RightForeArm  32.3371 77.7928 88.4814
RightHand  0.633765 -13.6428 -9.89263
LeftUpLeg  7.05837 5.75216 -1.74179
LeftLeg  4.86699 23.5279 -4.90136
LeftFoot  -11.6609 0.0638336 -2.24983
LeftToes  1.06248e-005 4.65854e-005 -8.185e-006
148
root  -26.1683 40.4329 -41.7819 1.74533 63.8867 4.48848
RightUpLeg  -19.3832 -21.6813 -0.666752
RightLeg  19.6308 -4.28161 -1.8995
RightFoot  -6.29156 -0.285821 5.51813
RightToes  0.000482159 0.542163 -0.142577
Spine  9.09491 0.256527 -3.72888
Spine1  11.3976 -0.236425 0.324699
HEad  -8.1336 10.3971 -8.19347
LeftShoulder1  7.95128 -12.9603 -41.9227
LeftArm  -11.4071 6.0426 -27.4204
LeftForeArm  36.4836 -75.1297 -44.0999
LeftHand  -0.25398 0.0180481 5.50724
RightShoulder  4.981 9.10626 33.5561
RightArm  -16.9617 -26.9638 27.7756
RightForeArm  36.7789 77.7907 92.6194
RightHand  0.612705 -13.5281 -9.7329
LeftUpLeg  9.7149 5.62051 -2.47866
LeftLeg  4.60915 22.7205 -4.90494
LeftFoot  -12.9713 0.0496535 -1.96385
LeftToes  1.06248e-005 4.65854e-005 -8.185e-006
149
root  -24.9978 40.1544 -41.5522 2.98367 65.0937 6.18646
RightUpLeg  -20.4526 -20.11 -0.173209
RightLeg  13.0957 -5.79747 0.120044
RightFoot  -5.51456 -0.352366 6.18092
RightToes  0.000482159 0.542163 -0.142577
Spine  9.43481 0.0753856 -4.37074
Spine1  11.653 -0.48755 0.331387
HEad  -8.13841 9.59777 -7.69389
LeftShoulder1  7.914 -12.897 -41.8844
LeftArm  -11.2982 5.12574 -27.4451
LeftForeArm  36.3268 -75.1331 -44.169
LeftHand  -0.25398 0.0180481 5.50724
RightShoulder  4.98835 9.11111 33.5988
RightArm  -17.8781 -27.1269 28.1233
RightForeArm  40.5473 77.7338 96.2584
RightHand  0.601383 -13.4919 -9.61716
LeftUpLeg  11.6697 5.4371 -3.46774
LeftLeg  5.25675 21.9387 -4.5238
LeftFoot  -14.502 0.0352738 -1.87967
LeftToes  1.06248e-005 4.65854e-005 -8.185e-006
150
root  -23.6903 39.8603 -41.3056 4.84291 66.5934 7.9696
RightUpLeg  -20.1648 -11.6864 -3.29112
RightLeg  5.21423 -15.5086 4.06198
RightFoot  -4.42616 -0.436333 6.70745
RightToes  0.000482159 0.542163 -0.142577
Spine  8.57419 -0.436223 -4.45578
Spine1  12.4291 -0.965664 0.165564
HEad  -7.75721 8.74285 -7.4911
LeftShoulder1  7.89344 -12.85 -41.8965
LeftArm  -10.9381 4.35556 -27.2649
LeftForeArm  35.6789 -75.0588 -43.9995
LeftHand  -0.25398 0.0180481 5.50724
RightShoulder  4.91795 9.00013 33.3877
RightArm  -18.4069 -27.0722 28.4273
RightForeArm  43.677 77.6303 99.6048
RightHand  0.620006 -13.555 -9.8026
LeftUpLeg  13.3772 5.21279 -4.36578
LeftLeg  5.79215 20.8425 -4.17463
LeftFoot  -15.8237 0.0211731 -1.88377
LeftToes  1.06248e-005 4.65854e-005 -8.185e-006
151
root  -22.2744 39.5329 -41.0039 6.56906 67.9336 9.64536
RightUpLeg  -20.1542 -7.33181 -4.7521
RightLeg  -2.37413 -21.1506 7.24236
RightFoot  -3.48434 -0.536869 7.4711
RightToes  0.000482159 0.542163 -0.142577
Spine  7.64753 -0.93158 -4.34631
Spine1  13.0198 -1.44687 0.134996
HEad  -7.06141 8.16244 -7.59192
LeftShoulder1  7.87277 -12.8023 -41.9098
LeftArm  -10.4189 3.88202 -27.1547
LeftForeArm  34.6824 -74.8834 -43.4412
LeftHand  -0.25398 0.0180481 5.50724
RightShoulder  4.81812 8.85223 33.0525
RightArm  -18.5359 -26.8664 28.4909
RightForeArm  45.5639 77.5228 101.983
RightHand  0.655073 -13.5135 -10.3297
LeftUpLeg  15.5252 5.22279 -4.84801
LeftLeg  6.08445 19.3269 -4.11155
LeftFoot  -17.3228 -0.0269344 -2.47167
LeftToes  1.06248e-005 4.65854e-005 -8.185e-006
152
root  -20.7609 39.1399 -40.625 7.80699 68.8848 11.2465
RightUpLeg  -20.6266 -7.15803 -4.42785
RightLeg  -5.16314 -21.3625 8.06991
RightFoot  -3.80219 -0.594716 8.61968
RightToes  0.000482159 0.542163 -0.142577
Spine  7.30304 -1.25569 -4.36628
Spine1  13.1495 -1.82251 0.303428
HEad  -6.33877 7.92089 -7.79673
LeftShoulder1  7.85456 -12.7667 -41.9039
LeftArm  -9.99209 3.8212 -27.2453
LeftForeArm  33.7829 -74.6963 -42.8187
LeftHand  -0.25398 0.0180481 5.50724
RightShoulder  4.75748 8.78891 32.7608
RightArm  -18.3453 -26.4367 28.1908
RightForeArm  45.6779 77.4814 102.615
RightHand  0.672025 -13.2386 -10.8974
LeftUpLeg  18.1426 5.56733 -4.87185
LeftLeg  6.88009 17.6146 -4.14221
LeftFoot  -18.9125 -0.135565 -3.76545
LeftToes  1.06248e-005 4.65854e-005 -8.185e-006
153
root  -19.1909 38.7969 -40.1952 8.58801 70.0364 12.4446
RightUpLeg  -20.7706 -7.08762 -4.08911
RightLeg  -3.93006 -20.4182 7.85296
RightFoot  -4.17538 -0.572352 8.62517
RightToes  0.000482159 0.542163 -0.142577
Spine  7.28884 -1.58145 -4.2898
Spine1  13.3181 -2.42016 0.923641
HEad  -5.93458 7.33517 -7.69869
LeftShoulder1  7.85242 -12.7398 -41.966
LeftArm  -9.70626 4.03389 -27.3981
LeftForeArm  33.2605 -74.5999 -42.5273
LeftHand  -0.25398 0.0180481 5.50724
RightShoulder  4.70438 8.74983 32.4504
RightArm  -17.9843 -25.8535 27.722
RightForeArm  44.6769 77.5014 101.979
RightHand  0.668535 -12.9938 -11.1672
LeftUpLeg  20.6768 6.0269 -4.24492
LeftLeg  8.26574 15.7387 -4.09321
LeftFoot  -19.4128 -0.235671 -4.9909
LeftToes  1.06248e-005 4.65854e-005 -8.185e-006
154
root  -17.5623 38.5653 -39.7183 8.99536 72.1136 13.0317
RightUpLeg  -21.1293 -7.85926 -3.35067
RightLeg  0.730846 -19.0787 6.61915
RightFoot  -3.40276 -0.391193 5.40827
RightToes  0.000482159 0.542163 -0.142577
Spine  7.3723 -2.21388 -3.65733
Spine1  13.5098 -3.41262 1.75162
HEad  -5.95403 6.65283 -7.66428
LeftShoulder1  7.85978 -12.7043 -42.1068
LeftArm  -9.289 4.35849 -27.5406
LeftForeArm  32.9306 -74.5563 -42.4253
LeftHand  -0.25398 0.0180481 5.50724
RightShoulder  4.59465 8.583 32.0714
RightArm  -17.6051 -25.6171 27.3267
RightForeArm  44.1657 77.5101 101.614
RightHand  0.669942 -13.0751 -11.0811
LeftUpLeg  22.7554 7.13612 -2.31936
LeftLeg  10.4418 12.126 -3.74267
LeftFoot  -18.7296 -0.298698 -6.34902
LeftToes  1.06248e-005 4.65854e-005 -8.185e-006
155
root  -15.8391 38.4307 -39.207 6.53157 73.652 10.7492
RightUpLeg  -22.1894 -10.7763 -0.53732
RightLeg  7.5315 -15.522 3.88284
RightFoot  -0.86867 0.0795748 -0.813233
RightToes  0.000482159 0.542163 -0.142577
Spine  7.85869 -2.68103 -1.09282
Spine1  13.529 -3.76695 1.68135
HEad  -6.285 5.54218 -7.43922
LeftShoulder1  7.88128 -12.7004 -42.2411
LeftArm  -8.67094 4.92371 -27.7821
LeftForeArm  32.4391 -74.4283 -41.9922
LeftHand  -0.25398 0.0180481 5.50724
RightShoulder  4.48747 8.36562 31.8649
RightArm  -17.2531 -26.0657 26.8822
RightForeArm  44.5407 77.5068 101.882
RightHand  0.673993 -13.3652 -10.7668
LeftUpLeg  25.2053 11.4874 2.16726
LeftLeg  12.8583 4.8132 -3.06668
LeftFoot  -17.0421 -0.357035 -9.27104
LeftToes  1.06248e-005 4.65854e-005 -8.185e-006
156
root  -14.0415 38.3514 -38.6835 0.673706 73.295 4.79013
RightUpLeg  -24.0616 -15.2796 4.37101
RightLeg  14.3886 -9.00674 0.544128
RightFoot  1.99797 0.75926 -6.4299
RightToes  0.000482159 0.542163 -0.142577
Spine  8.38825 -2.68136 3.47926
Spine1  13.402 -2.93769 0.207494
HEad  -6.53684 5.0209 -7.67322
LeftShoulder1  7.95936 -12.7986 -42.4139
LeftArm  -8.31655 5.93126 -28.0484
LeftForeArm  31.7718 -74.1945 -41.1657
LeftHand  -0.25398 0.0180481 5.50724
RightShoulder  4.5173 8.38353 32.0578
RightArm  -16.7535 -26.5808 26.0692
RightForeArm  43.7613 77.5505 100.935
RightHand  0.664998 -13.4675 -10.5149
LeftUpLeg  26.6881 17.6467 7.92868
LeftLeg  17.0825 -2.69894 -1.85972
LeftFoot  -13.2786 -0.133436 -13.6153
LeftToes  1.06248e-005 4.65854e-005 -8.185e-006
